<svg id="Hover_" data-name="Hover " xmlns="http://www.w3.org/2000/svg" width="263" height="281" viewBox="0 0 263 281">
  <defs>
    <style>
      .cls-1 {
        fill: #3a3838;
        fill-opacity: 0.83;
      }

      .cls-2, .cls-3, .cls-4 {
        fill: #fff;
      }

      .cls-2 {
        fill-opacity: 0;
        stroke-width: 1px;
      }

      .cls-2, .cls-3 {
        stroke: #fff;
        stroke-linejoin: round;
      }

      .cls-3 {
        stroke-width: 2px;
        fill-rule: evenodd;
      }

      .cls-4 {
        font-size: 13px;
        font-family: Lato;
        font-weight: 700;
      }
    </style>
  </defs>
  <rect id="Background" class="cls-1" width="263" height="281"/>
  <g id="Add_to_cart" data-name="Add to cart">
    <rect id="Rounded_Rectangle_7" data-name="Rounded Rectangle 7" class="cls-2" x="70" y="98" width="123" height="39"/>
    <path id="Forma_1_copy" data-name="Forma 1 copy" class="cls-3" d="M898.851,2004.79h2.438l3.474,13.25a0.862,0.862,0,0,0,.823.65h10.676a0.852,0.852,0,0,0,.78-0.54l3.885-9.41a0.941,0.941,0,0,0-.071-0.85,0.827,0.827,0,0,0-.709-0.41h-11.8a0.9,0.9,0,0,0,0,1.8h10.492l-3.148,7.62h-9.471l-3.474-13.24a0.86,0.86,0,0,0-.822-0.66h-3.077A0.9,0.9,0,0,0,898.851,2004.79Zm5.926,20.21a2.038,2.038,0,1,0-1.928-2.03A1.983,1.983,0,0,0,904.777,2025Zm12.053,0h0.141a1.865,1.865,0,0,0,1.319-.7,2.117,2.117,0,0,0,.468-1.48,1.976,1.976,0,0,0-2.056-1.89,2.015,2.015,0,0,0-1.787,2.17A1.982,1.982,0,0,0,916.83,2025Z" transform="translate(-816 -1895)"/>
    <text id="Add_to_Cart-2" data-name="Add to Cart" class="cls-4" x="113" y="123">Add to Cart</text>
  </g>
</svg>
